<svg width="24" height="22" xmlns="http://www.w3.org/2000/svg"><g stroke-width=".5" fill="none" stroke-linecap="round" stroke-linejoin="round"><path stroke="#E17726" fill="#E17726" d="M21.456 1.228l-8.304 6.177 1.544-3.646z"/><g fill="#E27625" stroke="#E27625"><path d="M2.266 1.228l8.253 6.228-1.468-3.697zm16.202 14.304l-2.227 3.392L21 20.241l1.342-4.633zm-17.063.076l1.342 4.633 4.734-1.317-2.203-3.392z"/><path d="M7.228 9.81l-1.317 2 4.684.203-.152-5.064zm9.291 0L13.253 6.9l-.101 5.114 4.683-.203zm-9.038 9.114l2.835-1.367-2.455-1.924zm5.949-1.367l2.81 1.367-.38-3.291z"/></g><path d="M16.24 18.924l-2.81-1.367.228 1.823-.025.785zm-8.759 0l2.633 1.24-.025-.784.227-1.823z" fill="#D5BFB2" stroke="#D5BFB2"/><path stroke="#233447" fill="#233447" d="M10.165 14.418l-2.355-.684 1.646-.76zm3.417 0l.684-1.443 1.67.76z"/><path d="M7.481 18.924l.405-3.392-2.608.076zm8.379-3.392l.38 3.392 2.228-3.316zm1.975-3.722l-4.683.203.43 2.405.684-1.443 1.67.76zM7.81 13.734l1.646-.76.709 1.444.43-2.405-4.684-.203z" fill="#CC6228" stroke="#CC6228"/><path d="M5.911 11.81l1.95 3.823-.05-1.899zm10.026 1.924l-.076 1.899 1.974-3.823zm-5.342-1.721l-.43 2.405.531 2.86.127-3.772zm2.557 0l-.228 1.493.101 3.772.557-2.86z" fill="#E27525" stroke="#E27525"/><path stroke="#F5841F" fill="#F5841F" d="M13.582 14.418l-.557 2.86.405.279 2.43-1.924.077-1.899zm-5.772-.684l.05 1.899 2.456 1.924.38-.279-.531-2.86z"/><path stroke="#C0AC9D" fill="#C0AC9D" d="M13.633 20.165l.025-.785-.228-.177h-3.139l-.202.177.025.785-2.633-1.24.911.759 1.874 1.29h3.19l1.873-1.29.912-.76z"/><path stroke="#161616" fill="#161616" d="M13.43 17.557l-.405-.279h-2.329l-.38.279-.227 1.823.202-.177h3.14l.227.177z"/><path d="M21.81 7.81l.709-3.418-1.063-3.164-8.026 5.975 3.09 2.607 4.354 1.266.962-1.114-.405-.304.659-.607-.507-.405.659-.507zM1.228 4.392l.709 3.418-.456.33.658.506-.506.405.683.607-.43.304.962 1.114 4.38-1.266 3.088-2.607-8.05-5.975z" fill="#763E1A" stroke="#763E1A"/><path stroke="#F5841F" fill="#F5841F" d="M20.873 11.076L16.52 9.81l1.316 2-1.974 3.823 2.607-.025h3.874zM7.228 9.81l-4.38 1.266-1.443 4.532h3.873l2.583.025-1.95-3.823zm5.924 2.203l.278-4.81 1.266-3.444H9.051l1.265 3.444.279 4.81.101 1.519v3.746h2.33v-3.746z"/></g></svg>