<svg width="23" height="16" xmlns="http://www.w3.org/2000/svg"><defs><linearGradient x1="100%" y1="14.001%" x2="0%" y2="85.999%" id="a"><stop stop-color="#7207F4" offset="0%"/><stop stop-color="#1CAFF7" offset="100%"/></linearGradient></defs><g fill="none" fill-rule="evenodd"><path d="M12.67 4.378h8.785a.952.952 0 01.822 1.433l-5.04 8.617a3.015 3.015 0 01-2.603 1.492H4.05l6.033-10.076a3.015 3.015 0 012.587-1.466z" fill="#95D5F3"/><path d="M2.579 15.92A2.579 2.579 0 010 13.342v-.017c0-.523.155-1.009.422-1.415L6.36 1.52A3.015 3.015 0 018.978 0h8.833a.952.952 0 01.824 1.429L12.53 11.985l1.64 1.348a1.46 1.46 0 01.099 2.166l.425.422H2.579z" fill="url(#a)"/><rect fill="#95D5F3" x="12.153" y="10.746" width="5.163" height="5.174" rx="2.579"/></g></svg>